# xmcd CD database file
#
# Track frame offsets:
#	150
#	22429
#	44719
#	64957
#	84220
#	98686
#	117510
#	130543
#	144683
#	160974
#	180019
#	255271
#	286832
#
# Disc length: 4799 seconds
#
# Revision: 0
# Processed by: cddbd v1.5.1PL2 Copyright (c) Steve Scherf et al.
# Submitted via: Feurio! 1.68 - http://www.feurio.com
#
DISCID=af12bd0d
DTITLE=Cream - Wheels Of Fire
DYEAR=1900
DGENRE=
TTITLE0=White Room
TTITLE1=Sitting On Top Of The World
TTITLE2=Passing The Time
TTITLE3=As You Said
TTITLE4=Pressed Rat And Warthog
TTITLE5=Politican
TTITLE6=Those Where The Days
TTITLE7=Born Under A Bad Sign
TTITLE8=Deserted Cities Af The Heart
TTITLE9=Crossroads
TTITLE10=Spoonful
TTITLE11=Traintime
TTITLE12=Toad
EXTD=
EXTT0=
EXTT1=
EXTT2=
EXTT3=
EXTT4=
EXTT5=
EXTT6=
EXTT7=
EXTT8=
EXTT9=
EXTT10=
EXTT11=
EXTT12=
PLAYORDER=
